<?xml version="1.0" standalone="no"?><!DOCTYPE svg PUBLIC "-//W3C//DTD SVG 1.1//EN" "http://www.w3.org/Graphics/SVG/1.1/DTD/svg11.dtd"><svg t="1554364025624" class="icon" style="" viewBox="0 0 1024 1024" version="1.1" xmlns="http://www.w3.org/2000/svg" p-id="11117" xmlns:xlink="http://www.w3.org/1999/xlink" width="32" height="32"><defs><style type="text/css"></style></defs><path d="M512 125.952c-248.832 0-450.56 201.728-450.56 450.56 0 102.4 33.792 198.656 97.28 279.552 48.128 60.416 210.944 81.92 350.208 81.92h5.12c139.264-1.024 306.176-22.528 353.28-83.968 62.464-79.872 95.232-175.104 95.232-276.48C962.56 327.68 760.832 125.952 512 125.952zM512 256c11.264 0 20.48 9.216 20.48 20.48v51.2c0 11.264-9.216 20.48-20.48 20.48s-20.48-9.216-20.48-20.48v-51.2c0-11.264 9.216-20.48 20.48-20.48zM331.776 464.896c-4.096 4.096-9.216 6.144-15.36 6.144s-10.24-2.048-14.336-6.144L266.24 429.056c-8.192-8.192-8.192-20.48 0-28.672s20.48-8.192 28.672 0l35.84 35.84c8.192 8.192 8.192 20.48 1.024 28.672zM276.48 634.88c11.264 0 20.48 9.216 20.48 20.48s-9.216 20.48-20.48 20.48h-51.2c-11.264 0-20.48-9.216-20.48-20.48s9.216-20.48 20.48-20.48h51.2z m153.6 44.032c0-37.888 26.624-69.632 61.44-78.848V512c0-11.264 9.216-20.48 20.48-20.48s20.48 9.216 20.48 20.48v87.04c34.816 9.216 61.44 40.96 61.44 78.848 0 45.056-36.864 81.92-81.92 81.92s-81.92-35.84-81.92-80.896z m326.656-249.856l-35.84 35.84c-4.096 4.096-9.216 6.144-14.336 6.144s-10.24-2.048-14.336-6.144c-8.192-8.192-8.192-20.48 0-28.672l35.84-35.84c8.192-8.192 20.48-8.192 28.672 0 8.192 7.168 8.192 20.48 0 28.672zM788.48 634.88c11.264 0 20.48 9.216 20.48 20.48s-9.216 20.48-20.48 20.48h-51.2c-11.264 0-20.48-9.216-20.48-20.48s9.216-20.48 20.48-20.48h51.2z m-276.48 84.992c-22.528 0-40.96-18.432-40.96-40.96s18.432-40.96 40.96-40.96 40.96 18.432 40.96 40.96-18.432 40.96-40.96 40.96z" p-id="11118"></path></svg>