<?xml version="1.0" standalone="no"?><!DOCTYPE svg PUBLIC "-//W3C//DTD SVG 1.1//EN" "http://www.w3.org/Graphics/SVG/1.1/DTD/svg11.dtd"><svg t="1548747872155" class="icon" style="" viewBox="0 0 1024 1024" version="1.1" xmlns="http://www.w3.org/2000/svg" p-id="4401" xmlns:xlink="http://www.w3.org/1999/xlink" width="64" height="64"><defs><style type="text/css"></style></defs><path d="M563.2 1006.933333s-3.413333 0 0 0l-549.546667-102.4c-6.826667-3.413333-13.653333-10.24-13.653333-17.066666V170.666667c0-6.826667 6.826667-13.653333 13.653333-17.066667l546.133334-136.533333c3.413333 0 10.24 0 13.653333 3.413333 3.413333 3.413333 6.826667 6.826667 6.826667 13.653333v955.733334c0 3.413333-3.413333 10.24-6.826667 13.653333-3.413333 3.413333-6.826667 3.413333-10.24 3.413333zM34.133333 873.813333l512 95.573334V54.613333L34.133333 184.32v689.493333z" fill="" p-id="4402"></path><path d="M1006.933333 938.666667h-443.733333c-10.24 0-17.066667-6.826667-17.066667-17.066667s6.826667-17.066667 17.066667-17.066667H989.866667v-785.066666H580.266667c-10.24 0-17.066667-6.826667-17.066667-17.066667s6.826667-17.066667 17.066667-17.066667h426.666666c10.24 0 17.066667 6.826667 17.066667 17.066667v819.2c0 10.24-6.826667 17.066667-17.066667 17.066667zM392.533333 699.733333c-6.826667 0-10.24-3.413333-13.653333-6.826666l-204.8-341.333334c-6.826667-10.24-3.413333-20.48 3.413333-23.893333s17.066667-3.413333 23.893334 6.826667l204.8 341.333333c3.413333 6.826667 3.413333 17.066667-6.826667 23.893333h-6.826667z" fill="" p-id="4403"></path><path d="M187.733333 699.733333c-3.413333 0-6.826667 0-10.24-3.413333-6.826667-3.413333-10.24-13.653333-3.413333-23.893333l204.8-341.333334c3.413333-6.826667 13.653333-10.24 23.893333-6.826666 6.826667 3.413333 10.24 13.653333 6.826667 23.893333l-204.8 341.333333c-6.826667 6.826667-10.24 10.24-17.066667 10.24zM733.866667 938.666667c-10.24 0-17.066667-6.826667-17.066667-17.066667V119.466667c0-10.24 6.826667-17.066667 17.066667-17.066667s17.066667 6.826667 17.066666 17.066667V921.6c0 10.24-6.826667 17.066667-17.066666 17.066667z" fill="" p-id="4404"></path><path d="M989.866667 802.133333H563.2c-10.24 0-17.066667-6.826667-17.066667-17.066666s6.826667-17.066667 17.066667-17.066667H989.866667c10.24 0 17.066667 6.826667 17.066666 17.066667s-6.826667 17.066667-17.066666 17.066666zM1006.933333 665.6h-443.733333c-10.24 0-17.066667-6.826667-17.066667-17.066667s6.826667-17.066667 17.066667-17.066666h443.733333c10.24 0 17.066667 6.826667 17.066667 17.066666s-6.826667 17.066667-17.066667 17.066667zM1006.933333 529.066667H580.266667c-10.24 0-17.066667-6.826667-17.066667-17.066667s6.826667-17.066667 17.066667-17.066667h426.666666c10.24 0 17.066667 6.826667 17.066667 17.066667s-6.826667 17.066667-17.066667 17.066667zM1000.106667 392.533333H573.44c-10.24 0-17.066667-6.826667-17.066667-17.066666s6.826667-17.066667 17.066667-17.066667h426.666667c10.24 0 17.066667 6.826667 17.066666 17.066667s-10.24 17.066667-17.066666 17.066666zM1006.933333 256h-443.733333c-10.24 0-17.066667-6.826667-17.066667-17.066667s6.826667-17.066667 17.066667-17.066666h443.733333c10.24 0 17.066667 6.826667 17.066667 17.066666s-6.826667 17.066667-17.066667 17.066667z" fill="" p-id="4405"></path></svg>